# xmcd
#
# Track frame offsets:
#	150
#	10241
#	17288
#	25805
#	37150
#	53296
#	62223
#	75685
#	87845
#	97542
#	108886
#	118182
#	132206
#	142635
#	153017
#	163231
#	172489
#	182718
#	191920
#	204633
#	214981
#	226299
#	236860
#	246998
#	258172
#
# Disc length: 3589 seconds
#
# Revision: 1
# Processed by: cddbd v1.5.2PL0 Copyright (c) Steve Scherf et al.
# Submitted via: audiograbber 1.83.01
#
DISCID=4c0e0319
DTITLE=Johnny Cash and June Carter - Country Lovers CD2
DYEAR=2014
DGENRE=Country
TTITLE0=Crocodile Tears
TTITLE1=Casey Jones (Live)
TTITLE2=The Rebel Johnny Yuma
TTITLE3=Root, Hog Or Die
TTITLE4=City Of New Orleans (Live)
TTITLE5=Honky Tonk Girl
TTITLE6=I Said My Nightshirt And Put On My Prayers
TTITLE7=Folsom Prison Blues (Live)
TTITLE8=I Couldnt Keep From Crying
TTITLE9=The Thing
TTITLE10=I Feel Better All Over
TTITLE11=The Heel
TTITLE12=If I Were A Carpenter
TTITLE13=Busted
TTITLE14=Knock Kneed Suzy
TTITLE15=Down The Street To 301
TTITLE16=Strange, Strange Woman
TTITLE17=I Will Miss You When I Go
TTITLE18=Jackson (Live)
TTITLE19=Wedding Of Hillbilly Lili Marlene
TTITLE20=Oh Lonesome Me
TTITLE21=Eight More Miles To Louisville
TTITLE22=Straight A's In Love
TTITLE23=Bashful Rescue
TTITLE24=I Love You Because
EXTD=
EXTT0=
EXTT1=
EXTT2=
EXTT3=
EXTT4=
EXTT5=
EXTT6=
EXTT7=
EXTT8=
EXTT9=
EXTT10=
EXTT11=
EXTT12=
EXTT13=
EXTT14=
EXTT15=
EXTT16=
EXTT17=
EXTT18=
EXTT19=
EXTT20=
EXTT21=
EXTT22=
EXTT23=
EXTT24=
PLAYORDER=
